<svg xmlns="http://www.w3.org/2000/svg" xmlns:xlink="http://www.w3.org/1999/xlink"><defs><style>
    .sprite-symbol-usage {display: none;}
    .sprite-symbol-usage:target {display: inline;}
  </style><symbol viewBox="0 0 100 50" id="AND"><path fill="none" stroke="#000" stroke-width="2" d="M70 25h25M31 15H5m27 20H5" /><path d="M30 5v40h20.476c11.268 0 20-9 20-20s-8.732-20-20-20H30zm2.857 2.857h17.62c9.76 0 16.666 7.64 16.666 17.143S59.76 42.143 50 42.143H32.857V7.857z" /></symbol><symbol viewBox="0 0 100 50" id="IMPLY"><path style="fill:#000;fill-opacity:1;fill-rule:evenodd;stroke:none;stroke-width:3;stroke-linecap:butt;stroke-linejoin:miter;stroke-opacity:1" d="m-2.406 44.5 2 2.438s5.656 7 5.656 17.562c0 10.562-5.656 17.563-5.656 17.563l-2 2.437H14.75c2.408 0 7.69.025 13.625-2.406s12.537-7.344 17.688-16.875L44.75 64.5l1.313-.719C35.758 44.716 19.506 44.5 14.75 44.5H-2.406zm5.875 3H14.75c4.684 0 18.287-.13 27.969 17C37.952 72.93 32.197 77.184 27 79.313c-5.36 2.195-9.842 2.187-12.25 2.187H3.5c1.874-3.108 4.75-9.05 4.75-17 0-7.973-2.909-13.9-4.781-17z" transform="translate(26.5 -39.5)" /><g style="stroke:#000;stroke-width:2"><path d="M23 15H5M32 35H5M70 25h25" /><circle cx="27" cy="15" r="3" style="fill-opacity:0" fill="none" /></g></symbol><symbol viewBox="0 0 100 50" id="NOT"><path fill="none" stroke="#000" stroke-width="2" d="M79.157 25H95m-65.957 0h-24" /><path d="M28.969 2.594v44.812l2.156-1.062 41.031-20v-2.688l-41.031-20-2.156-1.062zm3 4.812L68.094 25 31.969 42.594V7.406z" style="marker:none" /><path fill="none" stroke="#000" stroke-width="3" d="M79 25a4 4 0 1 1-8 0 4 4 0 1 1 8 0z" style="marker:none" /></symbol><symbol viewBox="0 0 100 50" id="OR"><path fill="none" stroke="#000" stroke-width="2" d="M70 25h25M31 15H5m27 20H5" /><path fill-rule="evenodd" d="m24.094 5 2 2.438s5.656 7 5.656 17.562-5.656 17.563-5.656 17.563l-2 2.437H41.25c2.408 0 7.69.025 13.625-2.406s12.537-7.344 17.688-16.875L71.25 25l1.313-.719C62.258 5.216 46.007 5 41.25 5H24.094zm5.875 3H41.25c4.684 0 18.287-.13 27.969 17-4.767 8.43-10.522 12.684-15.719 14.813C48.14 42.008 43.658 42 41.25 42H30c1.874-3.108 4.75-9.05 4.75-17 0-7.973-2.909-13.9-4.781-17z" /></symbol><symbol viewBox="0 0 100 50" id="XNOR"><path fill="none" stroke="#000" stroke-width="2" d="M78.333 25H95M30.386 15H5m26.362 20H5" /><g fill-rule="evenodd"><path d="M24.25 42C22.653 44.644 22 45 22 45h-3.656l2-2.437S26 35.563 26 25c0-10.562-5.656-17.563-5.656-17.563l-2-2.437H22c.781.938 1.422 1.656 2.219 3C26.09 11.1 29 17.027 29 25c0 7.95-2.897 13.88-4.75 17z" /><path d="m24.094 5 2 2.438s5.656 7 5.656 17.562-5.656 17.563-5.656 17.563l-2 2.437H41.25c2.408 0 7.69.025 13.625-2.406s12.537-7.344 17.688-16.875L71.25 25l1.313-.719C62.258 5.216 46.007 5 41.25 5H24.094zm5.875 3H41.25c4.684 0 18.287-.13 27.969 17-4.767 8.43-10.522 12.684-15.719 14.813C48.14 42.008 43.658 42 41.25 42H30c1.874-3.108 4.75-9.05 4.75-17 0-7.973-2.909-13.9-4.781-17z" /></g><path fill="none" stroke="#000" stroke-width="3" d="M79 25a4 4 0 1 1-8 0 4 4 0 1 1 8 0z" /></symbol><symbol viewBox="0 0 100 50" id="XOR"><path fill="none" stroke="#000" stroke-width="2" d="M70 25h25M30.386 15H5m26.362 20H5" /><g fill-rule="evenodd"><path d="M24.25 42C22.653 44.644 22 45 22 45h-3.656l2-2.438S26 35.563 26 25 20.344 7.437 20.344 7.437l-2-2.437H22c.781.938 1.422 1.656 2.219 3C26.09 11.1 29 17.027 29 25c0 7.95-2.897 13.88-4.75 17z" /><path d="m24.094 5 2 2.438s5.656 7 5.656 17.562-5.656 17.563-5.656 17.563l-2 2.437H41.25c2.408 0 7.69.025 13.625-2.406s12.537-7.344 17.688-16.875L71.25 25l1.313-.719C62.258 5.216 46.007 5 41.25 5H24.094zm5.875 3H41.25c4.684 0 18.287-.13 27.969 17-4.767 8.43-10.522 12.684-15.719 14.813C48.14 42.008 43.658 42 41.25 42H30c1.874-3.108 4.75-9.05 4.75-17 0-7.973-2.909-13.9-4.781-17z" /></g></symbol><symbol preserveAspectRatio="xMidYMid" viewBox="0 0 256 250" id="github"><path d="M128.001 0C57.317 0 0 57.307 0 128.001c0 56.554 36.676 104.535 87.535 121.46 6.397 1.185 8.746-2.777 8.746-6.158 0-3.052-.12-13.135-.174-23.83-35.61 7.742-43.124-15.103-43.124-15.103-5.823-14.795-14.213-18.73-14.213-18.73-11.613-7.944.876-7.78.876-7.78 12.853.902 19.621 13.19 19.621 13.19 11.417 19.568 29.945 13.911 37.249 10.64 1.149-8.272 4.466-13.92 8.127-17.116-28.431-3.236-58.318-14.212-58.318-63.258 0-13.975 5-25.394 13.188-34.358-1.329-3.224-5.71-16.242 1.24-33.874 0 0 10.749-3.44 35.21 13.121 10.21-2.836 21.16-4.258 32.038-4.307 10.878.049 21.837 1.47 32.066 4.307 24.431-16.56 35.165-13.12 35.165-13.12 6.967 17.63 2.584 30.65 1.255 33.873 8.207 8.964 13.173 20.383 13.173 34.358 0 49.163-29.944 59.988-58.447 63.157 4.591 3.972 8.682 11.762 8.682 23.704 0 17.126-.148 30.91-.148 35.126 0 3.407 2.304 7.398 8.792 6.14C219.37 232.5 256 184.537 256 128.002 256 57.307 198.691 0 128.001 0Zm-80.06 182.34c-.282.636-1.283.827-2.194.39-.929-.417-1.45-1.284-1.15-1.922.276-.655 1.279-.838 2.205-.399.93.418 1.46 1.293 1.139 1.931Zm6.296 5.618c-.61.566-1.804.303-2.614-.591-.837-.892-.994-2.086-.375-2.66.63-.566 1.787-.301 2.626.591.838.903 1 2.088.363 2.66Zm4.32 7.188c-.785.545-2.067.034-2.86-1.104-.784-1.138-.784-2.503.017-3.05.795-.547 2.058-.055 2.861 1.075.782 1.157.782 2.522-.019 3.08Zm7.304 8.325c-.701.774-2.196.566-3.29-.49-1.119-1.032-1.43-2.496-.726-3.27.71-.776 2.213-.558 3.315.49 1.11 1.03 1.45 2.505.701 3.27Zm9.442 2.81c-.31 1.003-1.75 1.459-3.199 1.033-1.448-.439-2.395-1.613-2.103-2.626.301-1.01 1.747-1.484 3.207-1.028 1.446.436 2.396 1.602 2.095 2.622Zm10.744 1.193c.036 1.055-1.193 1.93-2.715 1.95-1.53.034-2.769-.82-2.786-1.86 0-1.065 1.202-1.932 2.733-1.958 1.522-.03 2.768.818 2.768 1.868Zm10.555-.405c.182 1.03-.875 2.088-2.387 2.37-1.485.271-2.861-.365-3.05-1.386-.184-1.056.893-2.114 2.376-2.387 1.514-.263 2.868.356 3.061 1.403Z" fill="#161614" /></symbol></defs><use id="AND-usage" xlink:href="#AND" class="sprite-symbol-usage" /><use id="IMPLY-usage" xlink:href="#IMPLY" class="sprite-symbol-usage" /><use id="NOT-usage" xlink:href="#NOT" class="sprite-symbol-usage" /><use id="OR-usage" xlink:href="#OR" class="sprite-symbol-usage" /><use id="XNOR-usage" xlink:href="#XNOR" class="sprite-symbol-usage" /><use id="XOR-usage" xlink:href="#XOR" class="sprite-symbol-usage" /><use id="github-usage" xlink:href="#github" class="sprite-symbol-usage" /></svg>